# xmcd CD database file
#
# Track frame offsets:
#	150
#	14948
#	29099
#	40126
#	54680
#	69467
#
# Disc length: 1084 seconds
#
# Revision: 0
# Processed by: cddbd v1.5.2PL0 Copyright (c) Steve Scherf et al.
# Submitted via: CDex 1.70beta2
#
DISCID=57043a06
DTITLE=Bonk - Bonk!
DYEAR=2003
DGENRE=New Age
TTITLE0=Egal
TTITLE1=Uns
TTITLE2=Glaubst Du
TTITLE3=Madelaine
TTITLE4=Ewigkeit
TTITLE5=Ende
EXTD=YEAR: 2003
EXTT0=
EXTT1=
EXTT2=
EXTT3=
EXTT4=
EXTT5=
PLAYORDER=
